<mxfile host="app.diagrams.net" modified="2022-03-01T14:10:00.306Z" agent="5.0 (Macintosh; Intel Mac OS X 10_15_7) AppleWebKit/537.36 (KHTML, like Gecko) Chrome/98.0.4758.109 Safari/537.36" etag="T4b5KrjkuSChwkpEiERT" version="16.4.11" type="github">
  <diagram id="E1XF1uMm7Jbr27zkp4FO" name="第 1 页">
    <mxGraphModel dx="962" dy="769" grid="1" gridSize="10" guides="1" tooltips="1" connect="1" arrows="1" fold="1" page="1" pageScale="1" pageWidth="827" pageHeight="1169" math="0" shadow="0">
      <root>
        <mxCell id="0" />
        <mxCell id="1" parent="0" />
        <mxCell id="YLna3Rr-SjBl9qRqR_QD-111" value="" style="rounded=1;whiteSpace=wrap;html=1;fillColor=#f5f5f5;strokeColor=#666666;fontColor=#333333;" vertex="1" parent="1">
          <mxGeometry x="1350" y="740" width="140" height="320" as="geometry" />
        </mxCell>
        <mxCell id="YLna3Rr-SjBl9qRqR_QD-110" value="" style="rounded=1;whiteSpace=wrap;html=1;fillColor=#d5e8d4;strokeColor=#82b366;" vertex="1" parent="1">
          <mxGeometry x="880" y="740" width="450" height="80" as="geometry" />
        </mxCell>
        <mxCell id="YLna3Rr-SjBl9qRqR_QD-109" value="" style="rounded=1;whiteSpace=wrap;html=1;fillColor=#fff2cc;strokeColor=#d6b656;" vertex="1" parent="1">
          <mxGeometry x="880" y="980" width="450" height="80" as="geometry" />
        </mxCell>
        <mxCell id="YLna3Rr-SjBl9qRqR_QD-108" value="" style="rounded=1;whiteSpace=wrap;html=1;fillColor=#dae8fc;strokeColor=#6c8ebf;" vertex="1" parent="1">
          <mxGeometry x="880" y="860" width="450" height="80" as="geometry" />
        </mxCell>
        <mxCell id="YLna3Rr-SjBl9qRqR_QD-25" value="&lt;p&gt;&lt;br&gt;&lt;/p&gt;" style="rounded=1;whiteSpace=wrap;html=1;" vertex="1" parent="1">
          <mxGeometry x="270" y="320" width="320" height="80" as="geometry" />
        </mxCell>
        <mxCell id="YLna3Rr-SjBl9qRqR_QD-3" value="" style="edgeStyle=orthogonalEdgeStyle;rounded=0;orthogonalLoop=1;jettySize=auto;html=1;" edge="1" parent="1" source="YLna3Rr-SjBl9qRqR_QD-1" target="YLna3Rr-SjBl9qRqR_QD-2">
          <mxGeometry relative="1" as="geometry" />
        </mxCell>
        <mxCell id="YLna3Rr-SjBl9qRqR_QD-1" value="Scan" style="rounded=0;whiteSpace=wrap;html=1;" vertex="1" parent="1">
          <mxGeometry x="80" y="140" width="120" height="60" as="geometry" />
        </mxCell>
        <mxCell id="YLna3Rr-SjBl9qRqR_QD-5" value="" style="edgeStyle=orthogonalEdgeStyle;rounded=0;orthogonalLoop=1;jettySize=auto;html=1;" edge="1" parent="1" source="YLna3Rr-SjBl9qRqR_QD-2" target="YLna3Rr-SjBl9qRqR_QD-4">
          <mxGeometry relative="1" as="geometry" />
        </mxCell>
        <mxCell id="YLna3Rr-SjBl9qRqR_QD-2" value="Puller" style="rounded=0;whiteSpace=wrap;html=1;" vertex="1" parent="1">
          <mxGeometry x="277" y="140" width="120" height="60" as="geometry" />
        </mxCell>
        <mxCell id="YLna3Rr-SjBl9qRqR_QD-7" value="" style="edgeStyle=orthogonalEdgeStyle;rounded=0;orthogonalLoop=1;jettySize=auto;html=1;" edge="1" parent="1" source="YLna3Rr-SjBl9qRqR_QD-4">
          <mxGeometry relative="1" as="geometry">
            <mxPoint x="677" y="170" as="targetPoint" />
          </mxGeometry>
        </mxCell>
        <mxCell id="YLna3Rr-SjBl9qRqR_QD-4" value="Storage" style="whiteSpace=wrap;html=1;rounded=0;" vertex="1" parent="1">
          <mxGeometry x="477" y="140" width="120" height="60" as="geometry" />
        </mxCell>
        <mxCell id="YLna3Rr-SjBl9qRqR_QD-8" value="Notify" style="rounded=0;whiteSpace=wrap;html=1;" vertex="1" parent="1">
          <mxGeometry x="680" y="140" width="120" height="60" as="geometry" />
        </mxCell>
        <mxCell id="YLna3Rr-SjBl9qRqR_QD-55" style="edgeStyle=orthogonalEdgeStyle;curved=1;rounded=0;sketch=0;orthogonalLoop=1;jettySize=auto;html=1;exitX=1;exitY=0.5;exitDx=0;exitDy=0;entryX=0;entryY=0.5;entryDx=0;entryDy=0;" edge="1" parent="1" source="YLna3Rr-SjBl9qRqR_QD-11" target="YLna3Rr-SjBl9qRqR_QD-25">
          <mxGeometry relative="1" as="geometry" />
        </mxCell>
        <mxCell id="YLna3Rr-SjBl9qRqR_QD-11" value="Scan" style="rounded=0;whiteSpace=wrap;html=1;" vertex="1" parent="1">
          <mxGeometry x="80" y="330" width="120" height="60" as="geometry" />
        </mxCell>
        <mxCell id="YLna3Rr-SjBl9qRqR_QD-14" value="Insert" style="rounded=0;whiteSpace=wrap;html=1;fillColor=#ffe6cc;strokeColor=#d79b00;" vertex="1" parent="1">
          <mxGeometry x="291" y="345" width="80" height="30" as="geometry" />
        </mxCell>
        <mxCell id="YLna3Rr-SjBl9qRqR_QD-20" value="消息数据流" style="text;html=1;strokeColor=none;fillColor=none;align=center;verticalAlign=middle;whiteSpace=wrap;rounded=0;" vertex="1" parent="1">
          <mxGeometry x="40" y="80" width="90" height="30" as="geometry" />
        </mxCell>
        <mxCell id="YLna3Rr-SjBl9qRqR_QD-22" value="puller_topic" style="rounded=1;whiteSpace=wrap;html=1;" vertex="1" parent="1">
          <mxGeometry x="180" y="70" width="120" height="60" as="geometry" />
        </mxCell>
        <mxCell id="YLna3Rr-SjBl9qRqR_QD-23" value="storage_topic" style="rounded=1;whiteSpace=wrap;html=1;" vertex="1" parent="1">
          <mxGeometry x="380" y="70" width="120" height="60" as="geometry" />
        </mxCell>
        <mxCell id="YLna3Rr-SjBl9qRqR_QD-24" value="notify_topic" style="rounded=1;whiteSpace=wrap;html=1;" vertex="1" parent="1">
          <mxGeometry x="590" y="70" width="120" height="60" as="geometry" />
        </mxCell>
        <mxCell id="YLna3Rr-SjBl9qRqR_QD-35" value="Update" style="rounded=0;whiteSpace=wrap;html=1;fillColor=#ffe6cc;strokeColor=#d79b00;" vertex="1" parent="1">
          <mxGeometry x="391" y="345" width="80" height="30" as="geometry" />
        </mxCell>
        <mxCell id="YLna3Rr-SjBl9qRqR_QD-36" value="Delete" style="rounded=0;whiteSpace=wrap;html=1;fillColor=#ffe6cc;strokeColor=#d79b00;" vertex="1" parent="1">
          <mxGeometry x="491" y="345" width="80" height="30" as="geometry" />
        </mxCell>
        <mxCell id="YLna3Rr-SjBl9qRqR_QD-37" value="puller_topic" style="text;html=1;strokeColor=none;fillColor=none;align=center;verticalAlign=middle;whiteSpace=wrap;rounded=0;" vertex="1" parent="1">
          <mxGeometry x="277" y="270" width="83" height="30" as="geometry" />
        </mxCell>
        <mxCell id="YLna3Rr-SjBl9qRqR_QD-38" value="&lt;p&gt;&lt;br&gt;&lt;/p&gt;" style="rounded=1;whiteSpace=wrap;html=1;" vertex="1" parent="1">
          <mxGeometry x="270" y="490" width="320" height="80" as="geometry" />
        </mxCell>
        <mxCell id="YLna3Rr-SjBl9qRqR_QD-53" style="edgeStyle=orthogonalEdgeStyle;curved=1;rounded=0;sketch=0;orthogonalLoop=1;jettySize=auto;html=1;exitX=1;exitY=0.5;exitDx=0;exitDy=0;entryX=0;entryY=0.5;entryDx=0;entryDy=0;" edge="1" parent="1" source="YLna3Rr-SjBl9qRqR_QD-39" target="YLna3Rr-SjBl9qRqR_QD-38">
          <mxGeometry relative="1" as="geometry" />
        </mxCell>
        <mxCell id="YLna3Rr-SjBl9qRqR_QD-54" style="edgeStyle=orthogonalEdgeStyle;curved=1;rounded=0;sketch=0;orthogonalLoop=1;jettySize=auto;html=1;exitX=1;exitY=0.5;exitDx=0;exitDy=0;entryX=0;entryY=0.5;entryDx=0;entryDy=0;" edge="1" parent="1" source="YLna3Rr-SjBl9qRqR_QD-39" target="YLna3Rr-SjBl9qRqR_QD-44">
          <mxGeometry relative="1" as="geometry" />
        </mxCell>
        <mxCell id="YLna3Rr-SjBl9qRqR_QD-39" value="Scan" style="rounded=0;whiteSpace=wrap;html=1;" vertex="1" parent="1">
          <mxGeometry x="80" y="570" width="120" height="60" as="geometry" />
        </mxCell>
        <mxCell id="YLna3Rr-SjBl9qRqR_QD-40" value="Insert_Old" style="rounded=0;whiteSpace=wrap;html=1;fillColor=#ffe6cc;strokeColor=#d79b00;" vertex="1" parent="1">
          <mxGeometry x="291" y="515" width="80" height="30" as="geometry" />
        </mxCell>
        <mxCell id="YLna3Rr-SjBl9qRqR_QD-41" value="Update" style="rounded=0;whiteSpace=wrap;html=1;fillColor=#ffe6cc;strokeColor=#d79b00;" vertex="1" parent="1">
          <mxGeometry x="391" y="515" width="80" height="30" as="geometry" />
        </mxCell>
        <mxCell id="YLna3Rr-SjBl9qRqR_QD-42" value="Delete" style="rounded=0;whiteSpace=wrap;html=1;fillColor=#ffe6cc;strokeColor=#d79b00;" vertex="1" parent="1">
          <mxGeometry x="491" y="515" width="80" height="30" as="geometry" />
        </mxCell>
        <mxCell id="YLna3Rr-SjBl9qRqR_QD-43" value="puller_topic_A" style="text;html=1;strokeColor=none;fillColor=none;align=center;verticalAlign=middle;whiteSpace=wrap;rounded=0;" vertex="1" parent="1">
          <mxGeometry x="277" y="450" width="83" height="30" as="geometry" />
        </mxCell>
        <mxCell id="YLna3Rr-SjBl9qRqR_QD-44" value="&lt;p&gt;&lt;br&gt;&lt;/p&gt;" style="rounded=1;whiteSpace=wrap;html=1;" vertex="1" parent="1">
          <mxGeometry x="266" y="635" width="320" height="80" as="geometry" />
        </mxCell>
        <mxCell id="YLna3Rr-SjBl9qRqR_QD-46" value="Insert_New" style="rounded=0;whiteSpace=wrap;html=1;fillColor=#ffe6cc;strokeColor=#d79b00;" vertex="1" parent="1">
          <mxGeometry x="287" y="660" width="80" height="30" as="geometry" />
        </mxCell>
        <mxCell id="YLna3Rr-SjBl9qRqR_QD-49" value="puller_topic_B" style="text;html=1;strokeColor=none;fillColor=none;align=center;verticalAlign=middle;whiteSpace=wrap;rounded=0;" vertex="1" parent="1">
          <mxGeometry x="277" y="600" width="83" height="30" as="geometry" />
        </mxCell>
        <mxCell id="YLna3Rr-SjBl9qRqR_QD-56" value="&lt;p&gt;&lt;br&gt;&lt;/p&gt;" style="rounded=1;whiteSpace=wrap;html=1;" vertex="1" parent="1">
          <mxGeometry x="266" y="780" width="320" height="80" as="geometry" />
        </mxCell>
        <mxCell id="YLna3Rr-SjBl9qRqR_QD-57" style="edgeStyle=orthogonalEdgeStyle;curved=1;rounded=0;sketch=0;orthogonalLoop=1;jettySize=auto;html=1;exitX=1;exitY=0.5;exitDx=0;exitDy=0;entryX=0;entryY=0.5;entryDx=0;entryDy=0;" edge="1" parent="1" source="YLna3Rr-SjBl9qRqR_QD-59" target="YLna3Rr-SjBl9qRqR_QD-56">
          <mxGeometry relative="1" as="geometry" />
        </mxCell>
        <mxCell id="YLna3Rr-SjBl9qRqR_QD-58" style="edgeStyle=orthogonalEdgeStyle;curved=1;rounded=0;sketch=0;orthogonalLoop=1;jettySize=auto;html=1;exitX=1;exitY=0.5;exitDx=0;exitDy=0;entryX=0;entryY=0.5;entryDx=0;entryDy=0;" edge="1" parent="1" source="YLna3Rr-SjBl9qRqR_QD-59" target="YLna3Rr-SjBl9qRqR_QD-64">
          <mxGeometry relative="1" as="geometry" />
        </mxCell>
        <mxCell id="YLna3Rr-SjBl9qRqR_QD-70" style="edgeStyle=orthogonalEdgeStyle;curved=1;rounded=0;sketch=0;orthogonalLoop=1;jettySize=auto;html=1;exitX=1;exitY=0.5;exitDx=0;exitDy=0;entryX=0;entryY=0.5;entryDx=0;entryDy=0;" edge="1" parent="1" source="YLna3Rr-SjBl9qRqR_QD-59" target="YLna3Rr-SjBl9qRqR_QD-67">
          <mxGeometry relative="1" as="geometry" />
        </mxCell>
        <mxCell id="YLna3Rr-SjBl9qRqR_QD-59" value="Scan" style="rounded=0;whiteSpace=wrap;html=1;" vertex="1" parent="1">
          <mxGeometry x="80" y="925" width="120" height="60" as="geometry" />
        </mxCell>
        <mxCell id="YLna3Rr-SjBl9qRqR_QD-61" value="Update" style="rounded=0;whiteSpace=wrap;html=1;fillColor=#ffe6cc;strokeColor=#d79b00;" vertex="1" parent="1">
          <mxGeometry x="410" y="805" width="80" height="30" as="geometry" />
        </mxCell>
        <mxCell id="YLna3Rr-SjBl9qRqR_QD-62" value="Delete" style="rounded=0;whiteSpace=wrap;html=1;fillColor=#ffe6cc;strokeColor=#d79b00;" vertex="1" parent="1">
          <mxGeometry x="499" y="805" width="80" height="30" as="geometry" />
        </mxCell>
        <mxCell id="YLna3Rr-SjBl9qRqR_QD-63" value="puller_topic_A" style="text;html=1;strokeColor=none;fillColor=none;align=center;verticalAlign=middle;whiteSpace=wrap;rounded=0;" vertex="1" parent="1">
          <mxGeometry x="273" y="740" width="83" height="30" as="geometry" />
        </mxCell>
        <mxCell id="YLna3Rr-SjBl9qRqR_QD-64" value="&lt;p&gt;&lt;br&gt;&lt;/p&gt;" style="rounded=1;whiteSpace=wrap;html=1;" vertex="1" parent="1">
          <mxGeometry x="262" y="925" width="320" height="80" as="geometry" />
        </mxCell>
        <mxCell id="YLna3Rr-SjBl9qRqR_QD-65" value="Insert_New_Header" style="rounded=0;whiteSpace=wrap;html=1;fillColor=#ffe6cc;strokeColor=#d79b00;" vertex="1" parent="1">
          <mxGeometry x="283" y="950" width="117" height="30" as="geometry" />
        </mxCell>
        <mxCell id="YLna3Rr-SjBl9qRqR_QD-66" value="puller_topic_B" style="text;html=1;strokeColor=none;fillColor=none;align=center;verticalAlign=middle;whiteSpace=wrap;rounded=0;" vertex="1" parent="1">
          <mxGeometry x="273" y="890" width="83" height="30" as="geometry" />
        </mxCell>
        <mxCell id="YLna3Rr-SjBl9qRqR_QD-67" value="&lt;p&gt;&lt;br&gt;&lt;/p&gt;" style="rounded=1;whiteSpace=wrap;html=1;" vertex="1" parent="1">
          <mxGeometry x="262" y="1065" width="320" height="80" as="geometry" />
        </mxCell>
        <mxCell id="YLna3Rr-SjBl9qRqR_QD-68" value="Insert_Body" style="rounded=0;whiteSpace=wrap;html=1;fillColor=#ffe6cc;strokeColor=#d79b00;" vertex="1" parent="1">
          <mxGeometry x="283" y="1090" width="80" height="30" as="geometry" />
        </mxCell>
        <mxCell id="YLna3Rr-SjBl9qRqR_QD-69" value="puller_topic_C" style="text;html=1;strokeColor=none;fillColor=none;align=center;verticalAlign=middle;whiteSpace=wrap;rounded=0;" vertex="1" parent="1">
          <mxGeometry x="273" y="1030" width="83" height="30" as="geometry" />
        </mxCell>
        <mxCell id="YLna3Rr-SjBl9qRqR_QD-71" value="Insert_Old_Header" style="rounded=0;whiteSpace=wrap;html=1;fillColor=#ffe6cc;strokeColor=#d79b00;" vertex="1" parent="1">
          <mxGeometry x="283" y="805" width="117" height="30" as="geometry" />
        </mxCell>
        <mxCell id="YLna3Rr-SjBl9qRqR_QD-73" value="" style="edgeStyle=orthogonalEdgeStyle;rounded=0;orthogonalLoop=1;jettySize=auto;html=1;entryX=0;entryY=0.5;entryDx=0;entryDy=0;" edge="1" parent="1" source="YLna3Rr-SjBl9qRqR_QD-74" target="YLna3Rr-SjBl9qRqR_QD-78">
          <mxGeometry relative="1" as="geometry">
            <mxPoint x="1087" y="170" as="targetPoint" />
          </mxGeometry>
        </mxCell>
        <mxCell id="YLna3Rr-SjBl9qRqR_QD-74" value="Scan" style="rounded=0;whiteSpace=wrap;html=1;" vertex="1" parent="1">
          <mxGeometry x="890" y="140" width="120" height="60" as="geometry" />
        </mxCell>
        <mxCell id="YLna3Rr-SjBl9qRqR_QD-78" value="Storage" style="whiteSpace=wrap;html=1;rounded=0;" vertex="1" parent="1">
          <mxGeometry x="1310" y="140" width="120" height="60" as="geometry" />
        </mxCell>
        <mxCell id="YLna3Rr-SjBl9qRqR_QD-79" value="Notify" style="rounded=0;whiteSpace=wrap;html=1;" vertex="1" parent="1">
          <mxGeometry x="1040" y="870" width="120" height="60" as="geometry" />
        </mxCell>
        <mxCell id="YLna3Rr-SjBl9qRqR_QD-80" value="消息数据流" style="text;html=1;strokeColor=none;fillColor=none;align=center;verticalAlign=middle;whiteSpace=wrap;rounded=0;" vertex="1" parent="1">
          <mxGeometry x="880" y="50" width="90" height="30" as="geometry" />
        </mxCell>
        <mxCell id="YLna3Rr-SjBl9qRqR_QD-82" value="storage_topic" style="rounded=1;whiteSpace=wrap;html=1;" vertex="1" parent="1">
          <mxGeometry x="1100" y="80" width="120" height="60" as="geometry" />
        </mxCell>
        <mxCell id="YLna3Rr-SjBl9qRqR_QD-84" value="Puller/Imap" style="whiteSpace=wrap;html=1;rounded=0;" vertex="1" parent="1">
          <mxGeometry x="900" y="870" width="120" height="60" as="geometry" />
        </mxCell>
        <mxCell id="YLna3Rr-SjBl9qRqR_QD-85" value="Search" style="rounded=0;whiteSpace=wrap;html=1;" vertex="1" parent="1">
          <mxGeometry x="1180" y="870" width="120" height="60" as="geometry" />
        </mxCell>
        <mxCell id="YLna3Rr-SjBl9qRqR_QD-92" style="edgeStyle=orthogonalEdgeStyle;curved=1;rounded=0;sketch=0;orthogonalLoop=1;jettySize=auto;html=1;exitX=1;exitY=0.5;exitDx=0;exitDy=0;entryX=0;entryY=0.5;entryDx=0;entryDy=0;" edge="1" parent="1" source="YLna3Rr-SjBl9qRqR_QD-91" target="YLna3Rr-SjBl9qRqR_QD-87">
          <mxGeometry relative="1" as="geometry" />
        </mxCell>
        <mxCell id="YLna3Rr-SjBl9qRqR_QD-91" value="Scan" style="rounded=0;whiteSpace=wrap;html=1;" vertex="1" parent="1">
          <mxGeometry x="890" y="295" width="120" height="60" as="geometry" />
        </mxCell>
        <mxCell id="YLna3Rr-SjBl9qRqR_QD-93" value="" style="group" vertex="1" connectable="0" parent="1">
          <mxGeometry x="1050" y="290" width="350" height="70" as="geometry" />
        </mxCell>
        <mxCell id="YLna3Rr-SjBl9qRqR_QD-87" value="" style="rounded=1;whiteSpace=wrap;html=1;" vertex="1" parent="YLna3Rr-SjBl9qRqR_QD-93">
          <mxGeometry width="350" height="70" as="geometry" />
        </mxCell>
        <mxCell id="YLna3Rr-SjBl9qRqR_QD-88" value="Header_Sync" style="rounded=1;whiteSpace=wrap;html=1;fillColor=#fff2cc;strokeColor=#d6b656;" vertex="1" parent="YLna3Rr-SjBl9qRqR_QD-93">
          <mxGeometry x="31.428571428571423" y="15.909090909090908" width="85.71428571428572" height="38.18181818181818" as="geometry" />
        </mxCell>
        <mxCell id="YLna3Rr-SjBl9qRqR_QD-89" value="Body_Sync" style="rounded=1;whiteSpace=wrap;html=1;fillColor=#fff2cc;strokeColor=#d6b656;" vertex="1" parent="YLna3Rr-SjBl9qRqR_QD-93">
          <mxGeometry x="128.57142857142858" y="15.909090909090908" width="85.71428571428572" height="38.18181818181818" as="geometry" />
        </mxCell>
        <mxCell id="YLna3Rr-SjBl9qRqR_QD-90" value="Flag_Sync" style="rounded=1;whiteSpace=wrap;html=1;fillColor=#fff2cc;strokeColor=#d6b656;" vertex="1" parent="YLna3Rr-SjBl9qRqR_QD-93">
          <mxGeometry x="228.57142857142856" y="15.909090909090908" width="85.71428571428572" height="38.18181818181818" as="geometry" />
        </mxCell>
        <mxCell id="YLna3Rr-SjBl9qRqR_QD-94" value="Mail_Server" style="rounded=0;whiteSpace=wrap;html=1;" vertex="1" parent="1">
          <mxGeometry x="905" y="750" width="120" height="60" as="geometry" />
        </mxCell>
        <mxCell id="YLna3Rr-SjBl9qRqR_QD-95" value="Storage" style="rounded=0;whiteSpace=wrap;html=1;" vertex="1" parent="1">
          <mxGeometry x="1045" y="750" width="115" height="60" as="geometry" />
        </mxCell>
        <mxCell id="YLna3Rr-SjBl9qRqR_QD-96" value="DB" style="rounded=0;whiteSpace=wrap;html=1;" vertex="1" parent="1">
          <mxGeometry x="900" y="990" width="120" height="60" as="geometry" />
        </mxCell>
        <mxCell id="YLna3Rr-SjBl9qRqR_QD-97" value="Redis" style="rounded=0;whiteSpace=wrap;html=1;" vertex="1" parent="1">
          <mxGeometry x="1040" y="990" width="120" height="60" as="geometry" />
        </mxCell>
        <mxCell id="YLna3Rr-SjBl9qRqR_QD-98" value="Es" style="rounded=0;whiteSpace=wrap;html=1;" vertex="1" parent="1">
          <mxGeometry x="1180" y="990" width="120" height="60" as="geometry" />
        </mxCell>
        <mxCell id="YLna3Rr-SjBl9qRqR_QD-104" value="Scan/调度" style="rounded=0;whiteSpace=wrap;html=1;" vertex="1" parent="1">
          <mxGeometry x="1360" y="750" width="120" height="60" as="geometry" />
        </mxCell>
        <mxCell id="YLna3Rr-SjBl9qRqR_QD-105" value="Prom" style="rounded=0;whiteSpace=wrap;html=1;" vertex="1" parent="1">
          <mxGeometry x="1360" y="819" width="120" height="60" as="geometry" />
        </mxCell>
        <mxCell id="YLna3Rr-SjBl9qRqR_QD-106" value="Log" style="rounded=0;whiteSpace=wrap;html=1;" vertex="1" parent="1">
          <mxGeometry x="1360" y="890" width="120" height="60" as="geometry" />
        </mxCell>
        <mxCell id="YLna3Rr-SjBl9qRqR_QD-113" value="Repair" style="rounded=0;whiteSpace=wrap;html=1;" vertex="1" parent="1">
          <mxGeometry x="1185" y="750" width="115" height="60" as="geometry" />
        </mxCell>
        <mxCell id="YLna3Rr-SjBl9qRqR_QD-118" style="edgeStyle=orthogonalEdgeStyle;curved=1;rounded=0;sketch=0;orthogonalLoop=1;jettySize=auto;html=1;entryX=0;entryY=0.5;entryDx=0;entryDy=0;" edge="1" parent="1" source="YLna3Rr-SjBl9qRqR_QD-114" target="YLna3Rr-SjBl9qRqR_QD-115">
          <mxGeometry relative="1" as="geometry" />
        </mxCell>
        <mxCell id="YLna3Rr-SjBl9qRqR_QD-122" value="HTTP" style="edgeLabel;html=1;align=center;verticalAlign=middle;resizable=0;points=[];" vertex="1" connectable="0" parent="YLna3Rr-SjBl9qRqR_QD-118">
          <mxGeometry x="0.0154" y="-2" relative="1" as="geometry">
            <mxPoint x="1" y="1" as="offset" />
          </mxGeometry>
        </mxCell>
        <mxCell id="YLna3Rr-SjBl9qRqR_QD-119" style="edgeStyle=orthogonalEdgeStyle;curved=1;rounded=0;sketch=0;orthogonalLoop=1;jettySize=auto;html=1;exitX=1;exitY=0.5;exitDx=0;exitDy=0;" edge="1" parent="1" source="YLna3Rr-SjBl9qRqR_QD-114" target="YLna3Rr-SjBl9qRqR_QD-116">
          <mxGeometry relative="1" as="geometry" />
        </mxCell>
        <mxCell id="YLna3Rr-SjBl9qRqR_QD-123" value="HTTP" style="edgeLabel;html=1;align=center;verticalAlign=middle;resizable=0;points=[];" vertex="1" connectable="0" parent="YLna3Rr-SjBl9qRqR_QD-119">
          <mxGeometry x="0.1055" y="-1" relative="1" as="geometry">
            <mxPoint as="offset" />
          </mxGeometry>
        </mxCell>
        <mxCell id="YLna3Rr-SjBl9qRqR_QD-120" style="edgeStyle=orthogonalEdgeStyle;curved=1;rounded=0;sketch=0;orthogonalLoop=1;jettySize=auto;html=1;exitX=1;exitY=0.5;exitDx=0;exitDy=0;entryX=0;entryY=0.5;entryDx=0;entryDy=0;" edge="1" parent="1" source="YLna3Rr-SjBl9qRqR_QD-114" target="YLna3Rr-SjBl9qRqR_QD-117">
          <mxGeometry relative="1" as="geometry" />
        </mxCell>
        <mxCell id="YLna3Rr-SjBl9qRqR_QD-124" value="HTTP" style="edgeLabel;html=1;align=center;verticalAlign=middle;resizable=0;points=[];" vertex="1" connectable="0" parent="YLna3Rr-SjBl9qRqR_QD-120">
          <mxGeometry x="0.0554" relative="1" as="geometry">
            <mxPoint y="1" as="offset" />
          </mxGeometry>
        </mxCell>
        <mxCell id="YLna3Rr-SjBl9qRqR_QD-114" value="Storage" style="rounded=0;whiteSpace=wrap;html=1;" vertex="1" parent="1">
          <mxGeometry x="930" y="522.5" width="120" height="60" as="geometry" />
        </mxCell>
        <mxCell id="YLna3Rr-SjBl9qRqR_QD-115" value="Puller/Imap" style="whiteSpace=wrap;html=1;rounded=0;" vertex="1" parent="1">
          <mxGeometry x="1180" y="425" width="120" height="60" as="geometry" />
        </mxCell>
        <mxCell id="YLna3Rr-SjBl9qRqR_QD-116" value="Notify" style="rounded=0;whiteSpace=wrap;html=1;" vertex="1" parent="1">
          <mxGeometry x="1180" y="515" width="120" height="60" as="geometry" />
        </mxCell>
        <mxCell id="YLna3Rr-SjBl9qRqR_QD-117" value="Search" style="rounded=0;whiteSpace=wrap;html=1;" vertex="1" parent="1">
          <mxGeometry x="1180" y="600" width="120" height="60" as="geometry" />
        </mxCell>
      </root>
    </mxGraphModel>
  </diagram>
</mxfile>
